<?xml version="1.0" encoding="UTF-8" standalone="no"?>
<svg
   xmlns:dc="http://purl.org/dc/elements/1.1/"
   xmlns:cc="http://creativecommons.org/ns#"
   xmlns:rdf="http://www.w3.org/1999/02/22-rdf-syntax-ns#"
   xmlns:svg="http://www.w3.org/2000/svg"
   xmlns="http://www.w3.org/2000/svg"
   xmlns:sodipodi="http://sodipodi.sourceforge.net/DTD/sodipodi-0.dtd"
   xmlns:inkscape="http://www.inkscape.org/namespaces/inkscape"
   version="1.1"
   id="svg2"
   width="160"
   height="160"
   viewBox="0 0 160 160"
   sodipodi:docname="burpsuite-brands.svg"
   inkscape:version="1.0.2-2 (e86c870879, 2021-01-15)">
  <metadata
     id="metadata8">
    <rdf:RDF>
      <cc:Work
         rdf:about="">
        <dc:format>image/svg+xml</dc:format>
        <dc:type
           rdf:resource="http://purl.org/dc/dcmitype/StillImage" />
        <dc:title></dc:title>
      </cc:Work>
    </rdf:RDF>
  </metadata>
  <defs
     id="defs6">
    <marker
       style="overflow:visible"
       id="DotS"
       refX="0.0"
       refY="0.0"
       orient="auto"
       inkscape:stockid="DotS"
       inkscape:isstock="true">
      <path
         transform="scale(0.2) translate(7.4, 1)"
         style="fill-rule:evenodd;stroke:#000000;stroke-width:1pt;stroke-opacity:1;fill:#000000;fill-opacity:1"
         d="M -2.5,-1.0 C -2.5,1.7600000 -4.7400000,4.0 -7.5,4.0 C -10.260000,4.0 -12.5,1.7600000 -12.5,-1.0 C -12.5,-3.7600000 -10.260000,-6.0 -7.5,-6.0 C -4.7400000,-6.0 -2.5,-3.7600000 -2.5,-1.0 z "
         id="path1936" />
    </marker>
    <marker
       style="overflow:visible"
       id="Arrow1Lstart"
       refX="0.0"
       refY="0.0"
       orient="auto"
       inkscape:stockid="Arrow1Lstart"
       inkscape:isstock="true">
      <path
         transform="scale(0.8) translate(12.5,0)"
         style="fill-rule:evenodd;stroke:#000000;stroke-width:1pt;stroke-opacity:1;fill:#000000;fill-opacity:1"
         d="M 0.0,0.0 L 5.0,-5.0 L -12.5,0.0 L 5.0,5.0 L 0.0,0.0 z "
         id="path1869" />
    </marker>
  </defs>
  <sodipodi:namedview
     pagecolor="#ffffff"
     bordercolor="#666666"
     borderopacity="1"
     objecttolerance="10"
     gridtolerance="10"
     guidetolerance="10"
     inkscape:pageopacity="0"
     inkscape:pageshadow="2"
     inkscape:window-width="1440"
     inkscape:window-height="877"
     id="namedview4"
     showgrid="false"
     inkscape:zoom="4"
     inkscape:cx="57.627161"
     inkscape:cy="91.34243"
     inkscape:window-x="-8"
     inkscape:window-y="-8"
     inkscape:window-maximized="1"
     inkscape:current-layer="g10" />
  <g
     inkscape:groupmode="layer"
     inkscape:label="Image"
     id="g10">
    <path
       style="fill:none;stroke:#000000;stroke-width:1.6;stroke-linecap:butt;stroke-linejoin:miter;stroke-miterlimit:4;stroke-dasharray:none;stroke-opacity:1"
       d="m 73.053892,135.80838 v -10.07596 -6.6905 L 86.72583,102.15305 89.341317,98.922156 H 87.5 73.532934 L 72.814371,75.209581 H 45.988024 L 73.293413,41.916168 v -14.8503 H 85.508982 V 44.790419 L 69.94012,63.473054 h 15.808383 v 22.994012 h 27.305387 1.67665 L 84.790419,122.15569 v 13.65269 z"
       id="path1415"
       sodipodi:nodetypes="ccccccccccccccccccccc" />
    <path
       style="fill:none;stroke:#000000;stroke-width:1px;stroke-linecap:butt;stroke-linejoin:miter;stroke-opacity:1"
       d="M 12.934132,17.964072 H 145.86826 V 150.65868 H 13.892216 Z"
       id="path1419" />
    <path
       style="opacity:1;fill:#000000;fill-opacity:1;stroke:#000000;stroke-width:0.95;stroke-linecap:butt;stroke-linejoin:miter;stroke-miterlimit:4;stroke-dasharray:none;stroke-opacity:1;marker-start:url(#DotS)"
       d="m 14.398882,139.92198 c -0.0031,-5.60313 -0.169236,-31 -0.369205,-56.4375 -0.199968,-25.4375 -0.366186,-50.440625 -0.369373,-55.5625 l -0.0058,-9.3125 H 79.404503 145.1545 v 65.75 40.89052 24.85948 H 79.779508 14.404509 Z m 71.005626,-10.51867 v -6.95617 l 15.250002,-18.17586 c 8.3875,-9.99672 15.25,-18.228943 15.25,-18.293828 0,-0.06489 -6.6375,-0.117972 -14.75,-0.117972 H 86.404508 V 74.363145 62.866812 l -7.489222,-0.06617 -7.489223,-0.06617 7.364223,-8.83733 7.364222,-8.83733 v -9.35017 -9.35017 h -6.75 -6.75 l -0.01135,7.6875 -0.01132,7.6875 -13.862015,16.875 c -7.624107,9.28125 -13.862754,16.959375 -13.863662,17.0625 -10e-4,0.103125 6.129603,0.1875 13.623352,0.1875 7.49375,0 13.630515,0.02812 13.637255,0.0625 0.03362,0.171455 0.719068,21.2435 0.727713,22.371335 l 0.01002,1.308832 7.471892,0.06617 7.471895,0.06616 -7.71126,9.500001 -7.71126,9.5 -0.01063,8.8125 -0.01063,8.8125 h 6.5 6.5 z"
       id="path1447"
       sodipodi:nodetypes="sssccccccccsccssscccccccccccccscssscccccccccc" />
    <path
       style="fill:#000000;stroke-width:0.0078125;opacity:1"
       d="m 14.226783,127.33585 c -4e-5,-0.10635 -0.01231,-1.86328 -0.02728,-3.9043 -0.01496,-2.04101 -0.02723,-3.82256 -0.02727,-3.95898 l -6.7e-5,-0.24805 h 0.05387 0.05387 l 0.0044,0.11914 c 0.0024,0.0655 0.01343,1.66953 0.02444,3.56446 0.01101,1.89492 0.02226,3.70986 0.02501,4.0332 l 0.005,0.58789 h -0.05594 -0.05594 l -7.3e-5,-0.19336 z"
       id="path1449" />
    <path
       style="fill:#000000;stroke-width:0.0078125"
       d=""
       id="path1451" />
  </g>
  <g
     inkscape:groupmode="layer"
     id="layer1"
     inkscape:label="vector" />
</svg>
