<?xml version="1.0" encoding="UTF-8" standalone="no"?>
<svg
   xmlns:dc="http://purl.org/dc/elements/1.1/"
   xmlns:cc="http://creativecommons.org/ns#"
   xmlns:rdf="http://www.w3.org/1999/02/22-rdf-syntax-ns#"
   xmlns:svg="http://www.w3.org/2000/svg"
   xmlns="http://www.w3.org/2000/svg"
   xmlns:sodipodi="http://sodipodi.sourceforge.net/DTD/sodipodi-0.dtd"
   xmlns:inkscape="http://www.inkscape.org/namespaces/inkscape"
   version="1.1"
   id="Layer_1"
   x="0px"
   y="0px"
   width="306px"
   height="344.35px"
   viewBox="0 0 306 344.35"
   enable-background="new 0 0 306 344.35"
   xml:space="preserve"
   sodipodi:docname="cpp-brands.svg"
   inkscape:version="1.0.2-2 (e86c870879, 2021-01-15)"><metadata
   id="metadata25"><rdf:RDF><cc:Work
       rdf:about=""><dc:format>image/svg+xml</dc:format><dc:type
         rdf:resource="http://purl.org/dc/dcmitype/StillImage" /></cc:Work></rdf:RDF></metadata><defs
   id="defs23" /><sodipodi:namedview
   pagecolor="#ffffff"
   bordercolor="#666666"
   borderopacity="1"
   objecttolerance="10"
   gridtolerance="10"
   guidetolerance="10"
   inkscape:pageopacity="0"
   inkscape:pageshadow="2"
   inkscape:window-width="1440"
   inkscape:window-height="877"
   id="namedview21"
   showgrid="false"
   inkscape:zoom="1.4142136"
   inkscape:cx="148.71442"
   inkscape:cy="246.04766"
   inkscape:window-x="-8"
   inkscape:window-y="-8"
   inkscape:window-maximized="1"
   inkscape:current-layer="Layer_1"
   inkscape:document-rotation="0" />
<path
   fill="#00599C"
   d="M302.107,258.262c2.401-4.159,3.893-8.845,3.893-13.053V99.14c0-4.208-1.49-8.893-3.892-13.052L153,172.175  L302.107,258.262z"
   id="path2"
   style="fill:#000000" />
<path
   fill="#004482"
   d="M166.25,341.193l126.5-73.034c3.644-2.104,6.956-5.737,9.357-9.897L153,172.175L3.893,258.263  c2.401,4.159,5.714,7.793,9.357,9.896l126.5,73.034C147.037,345.401,158.963,345.401,166.25,341.193z"
   id="path4"
   style="fill:#000000" />
<path
   fill="#659AD2"
   d="M302.108,86.087c-2.402-4.16-5.715-7.793-9.358-9.897L166.25,3.156c-7.287-4.208-19.213-4.208-26.5,0  L13.25,76.19C5.962,80.397,0,90.725,0,99.14v146.069c0,4.208,1.491,8.894,3.893,13.053L153,172.175L302.108,86.087z"
   id="path6"
   style="fill:#000000" />
<g
   id="g10">
	<path
   fill="#FFFFFF"
   d="M153,274.175c-56.243,0-102-45.757-102-102s45.757-102,102-102c36.292,0,70.139,19.53,88.331,50.968   l-44.143,25.544c-9.105-15.736-26.038-25.512-44.188-25.512c-28.122,0-51,22.878-51,51c0,28.121,22.878,51,51,51   c18.152,0,35.085-9.776,44.191-25.515l44.143,25.543C223.142,254.644,189.294,274.175,153,274.175z"
   id="path8" />
</g>
<g
   id="g14">
	<polygon
   fill="#FFFFFF"
   points="255,166.508 243.666,166.508 243.666,155.175 232.334,155.175 232.334,166.508 221,166.508    221,177.841 232.334,177.841 232.334,189.175 243.666,189.175 243.666,177.841 255,177.841  "
   id="polygon12" />
</g>
<g
   id="g18">
	<polygon
   fill="#FFFFFF"
   points="297.5,166.508 286.166,166.508 286.166,155.175 274.834,155.175 274.834,166.508 263.5,166.508    263.5,177.841 274.834,177.841 274.834,189.175 286.166,189.175 286.166,177.841 297.5,177.841  "
   id="polygon16" />
</g>
<path
   style="fill:#000000"
   d="M 2.5441905,254.71411 C 1.7955933,253.04601 0.95201123,250.46265 0.66956371,248.97331 -0.03749052,245.24503 -0.03095844,99.082245 0.67643107,95.30788 1.5509266,90.641902 4.8103239,84.557304 8.4800929,80.740112 11.597061,77.497933 14.855449,75.542994 76.191391,40.11527 117.72782,16.123772 141.8901,2.4605182 144.17903,1.6697104 c 5.01039,-1.7310482 12.64055,-1.72802293 17.66646,0.007 2.25943,0.779994 26.67693,14.5879186 67.96312,38.4326546 60.75419,35.088434 64.61883,37.404873 67.62269,40.53254 1.75227,1.824483 3.43045,3.774107 3.72929,4.33249 0.50055,0.935297 -1.7394,2.33241 -28.44515,17.741975 -15.94367,9.1997 -29.49816,16.99438 -30.12108,17.32152 -1.05094,0.55192 -1.30657,0.32509 -3.54547,-3.14608 -14.18474,-21.991742 -37.17056,-38.24449 -62.43741,-44.148067 -11.55615,-2.70008 -26.01184,-3.411261 -37.30945,-1.835514 -38.8781,5.422559 -70.766122,31.852201 -83.297488,69.039171 -2.415048,7.16669 -4.171321,15.93028 -4.901817,24.45947 -1.483379,17.31977 2.33427,37.14797 10.167697,52.80923 1.556936,3.11277 2.651433,5.83285 2.432209,6.04463 -0.414375,0.4003 -59.3617175,34.48628 -59.6396102,34.48628 -0.08676,0 -0.7702331,-1.36481 -1.5188303,-3.0329 z"
   id="path27" /><path
   style="fill:#000000;stroke-width:0.515494"
   d="m 107.00925,193.4768 c -3.97325,-8.88856 -5.40418,-17.63269 -4.38216,-26.77854 2.26847,-20.29994 16.47676,-37.17719 36.45457,-43.30239 4.28791,-1.31467 5.32299,-1.42469 13.66059,-1.45199 7.91395,-0.0259 9.5273,0.11536 13.1451,1.15111 9.11081,2.60836 18.7511,8.50163 24.68868,15.09261 2.71515,3.01393 6.27642,8.09133 5.92306,8.44469 -0.533,0.53299 -86.37422,49.95322 -87.10135,50.1457 -0.59123,0.1565 -1.24967,-0.75355 -2.38849,-3.30119 z"
   id="path29" /><path
   style="fill:#000000;stroke-width:0.515494"
   d="M 265.89319,237.04806 C 246.33019,225.71217 213.2079,206.56104 192.2881,194.49 c -20.9198,-12.07104 -37.96976,-22.14591 -37.88881,-22.38861 0.15141,-0.4539 147.38423,-85.622941 147.59311,-85.37745 0.064,0.07524 0.60984,1.115382 1.21294,2.311424 2.69914,5.352793 2.62281,2.945357 2.63102,82.985396 0.005,52.05095 -0.16223,75.15354 -0.55895,77.06635 -0.59577,2.87253 -2.95874,8.69114 -3.49891,8.61579 -0.17392,-0.0243 -16.32231,-9.31894 -35.88531,-20.65484 z m -21.9085,-53.53219 v -5.67043 h 5.67044 5.67043 v -5.67044 -5.67043 h -5.67043 -5.67044 v -5.67044 -5.67043 h -5.92818 -5.92818 v 5.67043 5.67044 h -5.67043 -5.67044 v 5.67043 5.67044 h 5.67044 5.67043 v 5.67043 5.67044 h 5.92818 5.92818 z m 42.27051,0 v -5.67043 h 5.67044 5.67043 v -5.67044 -5.67043 h -5.67043 -5.67044 v -5.67044 -5.67043 h -5.92818 -5.92818 v 5.67043 5.67044 h -5.67043 -5.67044 v 5.67043 5.67044 h 5.67044 5.67043 v 5.67043 5.67044 h 5.92818 5.92818 z"
   id="path31" /><path
   style="fill:#000000;stroke-width:0.515494"
   d="m 143.00611,221.92689 c -10.32707,-2.33366 -18.69036,-6.91141 -25.83294,-14.13997 -3.63953,-3.68332 -8.16251,-9.59052 -7.68932,-10.04254 1.10002,-1.05081 43.51246,-25.06484 43.95702,-24.88857 0.72412,0.28712 42.7578,24.56149 43.06801,24.87169 0.48343,0.48344 -4.00111,6.36401 -7.66858,10.05577 -6.24324,6.28461 -13.97087,10.84278 -22.6952,13.38685 -5.04868,1.47223 -18.08601,1.89862 -23.13899,0.75677 z"
   id="path33" /><path
   style="fill:#000000;stroke-width:0.515494"
   d="m 149.39154,343.73597 c -1.98465,-0.20219 -4.56088,-0.70459 -5.72496,-1.11643 -1.16407,-0.41184 -31.32047,-17.59393 -67.014219,-38.1824 C 15.58635,269.21371 11.566533,266.80833 8.5686975,263.6972 6.8164299,261.87871 5.1413369,259.93975 4.8462684,259.38841 4.3547299,258.46996 6.80279,256.94922 34.064658,241.23784 c 16.365182,-9.43147 29.911901,-17.23353 30.103819,-17.33792 0.191914,-0.10438 1.768913,1.9331 3.504442,4.52774 16.681119,24.93855 42.217051,40.93977 71.924241,45.06887 9.19178,1.27759 24.4711,0.79779 33.24936,-1.04411 27.71213,-5.81469 51.25124,-21.81439 66.207,-45.00139 1.32963,-2.06142 2.57713,-3.66458 2.77222,-3.56257 0.1951,0.10201 13.74814,7.89873 30.11787,17.32605 27.45709,15.81252 29.72093,17.21944 29.21839,18.15846 -0.29962,0.55983 -1.97843,2.50829 -3.7307,4.3299 -3.00038,3.11912 -6.93899,5.47865 -67.62269,40.51107 -35.44021,20.45946 -65.54715,37.63018 -66.9043,38.15715 -3.20566,1.24473 -8.97354,1.82732 -13.51277,1.36488 z"
   id="path35" /><path
   style="fill:#000000;stroke-width:0.515494"
   d="m 108.52106,195.76409 c -1.19447,-1.43926 -3.89382,-9.08635 -4.86696,-13.78782 -1.30876,-6.32294 -1.05554,-16.24582 0.57049,-22.3557 4.68453,-17.60236 19.20547,-31.88713 37.0549,-36.45225 5.59115,-1.42997 17.92179,-1.41157 23.57855,0.0352 8.78693,2.24732 19.80955,8.88661 25.51537,15.36875 2.69475,3.0614 5.67723,7.15676 5.66349,7.77675 -0.004,0.16998 -8.41276,5.16802 -18.68666,11.10675 -27.30292,15.78223 -66.90529,38.47461 -67.63171,38.75337 -0.34545,0.13256 -0.88431,-0.0677 -1.19747,-0.44503 z"
   id="path37" /><path
   style="fill:#000000;stroke-width:0.515494"
   d=""
   id="path39" /><path
   style="fill:#000000;stroke-width:0.515494"
   d=""
   id="path41" /><path
   style="fill:#000000;stroke-width:0.0644368"
   d=""
   id="path43" /><path
   style="fill:#000000;stroke-width:0.0644368"
   d=""
   id="path45" /><path
   style="fill:#000000;stroke-width:0.0644368"
   d=""
   id="path47" /><path
   style="fill:#000000;stroke-width:0.182255"
   d="m 3.8642697,257.20385 c -0.4970356,-0.75996 -1.8870516,-4.06686 -2.4713378,-5.8794 -0.51215197,-1.58877 -0.60548672,-2.19738 -0.75325234,-4.9118 -0.0928194,-1.70507 -0.21490897,-31.14793 -0.27150262,-65.47499 L 0.26533902,118.56101 H 33.079223 65.893108 l -1.109879,1.86811 c -1.582264,2.66321 -3.935143,7.25704 -5.319019,10.38502 -3.844274,8.68921 -6.278376,17.25338 -7.659842,26.95047 -0.847718,5.95048 -0.92758,7.22636 -0.917164,14.65265 0.01094,7.79468 0.217847,10.37672 1.35959,16.96594 1.748276,10.08963 4.259237,17.94984 8.853483,27.7146 1.888459,4.0138 2.652447,5.94093 2.434327,6.14051 -0.343337,0.31416 -48.888873,28.4204 -57.4470915,33.25994 l -1.9598769,1.10828 z"
   id="path49" /></svg>
